<svg width="448" height="448" viewBox="0 0 448 448" fill="none" xmlns="http://www.w3.org/2000/svg">
<g clip-path="url(#clip0_208_2)">
<path d="M24.7272 -0.00357056C11.0691 -0.00357056 -3.05176e-05 11.0655 -3.05176e-05 24.7237V423.273C-3.05176e-05 436.927 11.0673 448 24.7272 448H239.29V274.509H180.91V206.897H239.29V157.031C239.29 99.167 274.631 67.6594 326.252 67.6594C350.978 67.6594 372.23 69.5006 378.422 70.3246V130.797L342.62 130.814C314.549 130.814 309.113 144.155 309.113 163.73V206.897H376.066L367.347 274.509H309.113V448H423.276C436.929 448 448 436.929 448 423.273V24.7241C448 11.0659 436.931 -0.00315074 423.276 -0.00315074H24.7272V-0.00357056Z" fill="white"/>
</g>
<defs>
<clipPath id="clip0_208_2">
<rect width="448" height="448" fill="white"/>
</clipPath>
</defs>
</svg>
