<svg width="20" height="20" viewBox="0 0 20 20" fill="none" xmlns="http://www.w3.org/2000/svg">
<g clip-path="url(#clip0_209_26)">
<path d="M8.61699 13.227C8.09099 15.981 7.45 18.621 5.549 20C4.96299 15.838 6.41 12.713 7.083 9.395C5.936 7.465 7.22099 3.583 9.63799 4.54C12.613 5.716 7.062 11.712 10.788 12.462C14.679 13.243 16.267 5.712 13.854 3.263C10.369 -0.275 3.708 3.18 4.528 8.245C4.727 9.483 6.006 9.858 5.039 11.567C2.808 11.073 2.142 9.313 2.228 6.967C2.366 3.127 5.67699 0.44 8.99899 0.0669997C13.2 -0.404 17.143 1.61 17.688 5.561C18.301 10.022 15.792 14.854 11.299 14.506C10.081 14.411 9.57099 13.807 8.61699 13.227V13.227Z" fill="white"/>
</g>
<defs>
<clipPath id="clip0_209_26">
<rect width="20" height="20" fill="white"/>
</clipPath>
</defs>
</svg>
